PathFileType	4	(X/Y/Z)	D:\Research_projects\MuscleProsody\BulkSports2Dtrack\RetrackedSports2D\p1_sample60_cam2\p1_sample60_cam2_Sports2D\p1_sample60_cam2_Sports2D_px_person00.trc
DataRate	CameraRate	NumFrames	NumMarkers	Units	OrigDataRate	OrigDataStartFrame	OrigNumFrames
60	60	7	22	m	60	585	780
Frame#	Time	Hip			RHip			RKnee			RAnkle			RBigToe			RSmallToe			RHeel			LHip			LKnee			LAnkle			LBigToe			LSmallToe			LHeel			Neck			Head			Nose			RShoulder			RElbow			RWrist			LShoulder			LElbow			LWrist		
		X1	Y1	Z1	X2	Y2	Z2	X3	Y3	Z3	X4	Y4	Z4	X5	Y5	Z5	X6	Y6	Z6	X7	Y7	Z7	X8	Y8	Z8	X9	Y9	Z9	X10	Y10	Z10	X11	Y11	Z11	X12	Y12	Z12	X13	Y13	Z13	X14	Y14	Z14	X15	Y15	Z15	X16	Y16	Z16	X17	Y17	Z17	X18	Y18	Z18	X19	Y19	Z19	X20	Y20	Z20	X21	Y21	Z21	X22	Y22	Z22
585	9.75	249.60580412893	510.40963932991616	0.0	223.02435812978456	507.3931915336632	0.0	218.6816054670433	624.7260507032137	0.0	220.75923572923102	731.0625378341989	0.0	220.32265246974802	771.0907815075849	0.0	204.7670391655368	763.0297250062503	0.0	227.04717851992788	737.6050340915472	0.0	278.3206333204104	509.30343471512657	0.0	269.7216444506706	628.5560863181968	0.0	269.349387812064	732.1828173457164	0.0	263.39775815283286	771.2533403767186	0.0	280.4978080973562	766.5430431531324	0.0	266.74556577301104	736.2757788643369	0.0	255.9881231580318	328.49570249116255	0.0	251.287513597917	245.00088201525728	0.0	241.3340523730383	296.29949064116073	0.0	206.9063286883235	357.69798212063756	0.0	188.3577911748859	441.1051760739545	0.0	232.16589514102407	426.3642724381396	0.0	307.44042329146083	359.1339645864363	0.0	306.9667598360932	446.6460372273771	0.0	230.58142095951098	471.5807519000076	0.0
586	9.766666666666666	249.51539187161393	510.5837949354248	0.0	222.93052418147084	507.5382070472229	0.0	218.53756779390534	624.9964602002942	0.0	220.7674970973215	731.2717277340373	0.0	220.28092896105895	771.0150404892909	0.0	204.794359045029	763.0225142621927	0.0	227.0480022649659	737.7839602351447	0.0	278.147580588794	509.4296894990187	0.0	269.62973748534256	628.7555397747282	0.0	269.3957973527902	732.3021670769735	0.0	263.38889216583146	771.2999754910228	0.0	280.4968196935556	766.5733852242469	0.0	266.8674513229399	736.3180689703713	0.0	255.9718027572527	328.4507289014871	0.0	251.10106583999357	245.0350551149714	0.0	241.17280349210156	296.3480727897534	0.0	206.9871710442837	357.75353650280994	0.0	188.50842784565523	440.9974343217974	0.0	230.22434079941482	426.6120736064753	0.0	307.4799851861434	359.23923510450675	0.0	308.2587465376445	446.4827866051252	0.0	234.21999116142518	471.9356110334455	0.0
587	9.783333333333333	249.43847805072204	510.8480740961913	0.0	222.82121629836067	507.81865538692387	0.0	218.42630496876689	625.4676377594643	0.0	220.77984998805744	731.5417360566413	0.0	220.22208916770043	770.9173978809187	0.0	204.86819723242698	763.0085566868892	0.0	227.0082273876995	738.0041552290905	0.0	277.9541672301817	509.6769812736982	0.0	269.5503011376713	629.0976540235702	0.0	269.4476821223834	732.5014732667504	0.0	263.3978386558748	771.3150797837789	0.0	280.4736037783009	766.597902967789	0.0	267.0258848442964	736.4251481136014	0.0	255.9479149091206	328.40496403983434	0.0	250.9118627555351	245.09869168843463	0.0	241.01388533453795	296.3886615646525	0.0	207.00903791574123	357.83318097709986	0.0	188.4063689383661	440.83241455080895	0.0	225.96236905413392	427.0198613112067	0.0	307.5687542161165	359.3781358271571	0.0	310.0477231182665	446.1449390262207	0.0	240.22349004455097	472.2770705243419	0.0
588	9.8	249.3763145724416	511.1906703126946	0.0	222.70143572280227	508.2415410506567	0.0	218.34947126326523	626.1339936879299	0.0	220.78716370760313	731.8481508704422	0.0	220.15116636271523	770.8048963366291	0.0	204.98284550493105	762.9893164842507	0.0	226.91960231647434	738.249116625169	0.0	277.743461377003	510.0547883352827	0.0	269.48437278569816	629.5896303429649	0.0	269.50038223452657	732.76354948424	0.0	263.423773734429	771.2908602182262	0.0	280.4257639500073	766.6158212687835	0.0	267.2041912461371	736.5858838782834	0.0	255.9215456427172	328.36689412058956	0.0	250.72696558681955	245.1901428013439	0.0	240.8628437385368	296.414609710118	0.0	206.96896383195667	357.93324167483945	0.0	188.0499766596834	440.58088094446373	0.0	219.60822793902514	427.5853280503994	0.0	307.70805794750845	359.54295046387125	0.0	312.2358522866342	445.6249330824528	0.0	248.4636080676634	472.5194577714036	0.0
589	9.816666666666666	249.32728728037583	511.5914696974806	0.0	222.57545132926285	508.80126190786194	0.0	218.30338922252156	626.9831961885484	0.0	220.7790193904941	732.1617515964946	0.0	220.07438154186528	770.685525264348	0.0	205.12940160831377	762.9672493489863	0.0	226.77259204374565	738.4979112426064	0.0	277.5139614149209	510.5619378610302	0.0	269.4316022253789	630.2346011058869	0.0	269.54712107530946	733.0628649414911	0.0	263.46459193078243	771.2216989158215	0.0	280.35385172771606	766.6270471213974	0.0	267.3843678064174	736.7832264268732	0.0	255.89841150466583	328.3515402532818	0.0	250.55321980795716	245.3055093555549	0.0	240.72680478174783	296.4213379579334	0.0	206.86776626782392	358.050100045985	0.0	187.44899322791366	440.2168197655279	0.0	211.4889314636239	428.28198833085895	0.0	307.89390930701643	359.7232406111864	0.0	314.7119810728816	444.91828234440624	0.0	258.7359920718287	472.56033194776984	0.0
590	9.833333333333334	249.2876459010914	512.0255215544021	0.0	222.44578105759842	509.4777653473375	0.0	218.28262796550914	627.9937374340421	0.0	220.74845480004544	732.4497875485806	0.0	220.00166112067072	770.5639870111606	0.0	205.29696975896402	762.9463594926516	0.0	226.5599866320696	738.7287348776829	0.0	277.2622982014248	511.18404462761515	0.0	269.3909337036953	631.0254487119436	0.0	269.58165573264455	733.3649949364195	0.0	263.51607939980585	771.1040096353344	0.0	280.26570340371603	766.6307423662968	0.0	267.54923992518223	736.9963794122136	0.0	255.88329147483415	328.3750577574185	0.0	250.3984638325421	245.4377720428361	0.0	240.61324224461887	296.4087029535972	0.0	206.70891381301433	358.18201205690457	0.0	186.62143702803778	439.7250509673344	0.0	201.99515013934897	429.05813925254523	0.0	308.1161994714731	359.90704757471946	0.0	317.3636609185132	444.02653605747105	0.0	270.73876338666713	472.30410432922764	0.0
591	9.85	249.2541970026947	512.4656934654599	0.0	222.3134889264835	510.2352756031514	0.0	218.2812726767499	629.1298182679501	0.0	220.69357677408078	732.6791926356121	0.0	219.94235792569447	770.4438781237232	0.0	205.47045088375293	762.9337489603936	0.0	226.2813489620573	738.9257456131263	0.0	276.99001200385095	511.89119629140816	0.0	269.3614174943003	631.939022513004	0.0	269.601047605595	733.6295551346326	0.0	263.5710380493357	770.9397808465283	0.0	280.17559884181054	766.6261736843124	0.0	267.68726947222706	737.2069939398862	0.0	255.87894181595286	328.44998351900296	0.0	250.27007221019318	245.57774223499501	0.0	240.52685867271128	296.3805249410588	0.0	206.49786867481868	358.32677515633236	0.0	185.59152648155137	439.1078726339441	0.0	191.54572420159596	429.84286293896366	0.0	308.3593633267544	360.0813413366514	0.0	320.0836671654115	442.96646572239814	0.0	284.05667180874076	471.68354285768794	0.0
